<svg width="17" height="15" viewBox="0 0 17 15" fill="none" xmlns="http://www.w3.org/2000/svg">
<path d="M17.0001 2.29997H16.3472C16.1047 2.29997 15.7619 2.6682 15.7619 2.90394V11.4484C15.7619 11.6844 16.1047 12.0061 16.3472 12.0061H17.0001V14.0342H11.084V12.0061H12.3223V3.02431H12.2616L9.36999 14.0342H7.13129L4.277 3.02431H4.20477V12.0061H5.44303V14.0342H0.48999V12.0061H1.12422C1.38542 12.0061 1.72825 11.6844 1.72825 11.4484V2.90394C1.72825 2.6682 1.38542 2.29997 1.12422 2.29997H0.48999V0.271827H6.68355L8.717 8.23954H8.77295L10.8252 0.271827H17.0001V2.29997Z" fill="#757E9A"/>
</svg>
