<svg width="15" height="13" viewBox="0 0 15 13" fill="none" xmlns="http://www.w3.org/2000/svg">
<path d="M5.81972 11.9086C5.38191 11.9086 5.4563 11.7394 5.3053 11.3129L4.01782 6.97717L13.9283 0.961212" fill="#9399AB"/>
<path d="M5.81982 11.9085C6.15768 11.9085 6.30696 11.7504 6.49554 11.5628L8.29744 9.77L6.04979 8.38315" fill="#70788E"/>
<path d="M6.04945 8.3835L11.4957 12.5007C12.1172 12.8516 12.5657 12.67 12.7205 11.9103L14.9374 1.22077C15.1644 0.289643 14.5906 -0.132671 13.996 0.143524L0.978404 5.27968C0.0898302 5.64436 0.0950105 6.15162 0.816436 6.37764L4.15705 7.44452L11.8909 2.45195C12.256 2.22541 12.5911 2.3472 12.3161 2.59696" fill="#B6BAC7"/>
</svg>
