<svg width="18" height="16" viewBox="0 0 18 16" fill="none" xmlns="http://www.w3.org/2000/svg">
<path fill-rule="evenodd" clip-rule="evenodd" d="M17.0328 2.01533C16.4253 2.31187 15.7726 2.51146 15.0877 2.60217C15.7868 2.14121 16.3239 1.41148 16.5767 0.542277C15.9222 0.968942 15.1973 1.27881 14.4257 1.44579C13.8081 0.722582 12.9276 0.27182 11.9535 0.27182C10.0832 0.27182 8.56631 1.93879 8.56631 3.99415C8.56631 4.28615 8.59598 4.57022 8.65402 4.84266C5.83853 4.68674 3.3424 3.20404 1.67204 0.953066C1.38053 1.50305 1.2135 2.14206 1.2135 2.82415C1.2135 4.11549 1.81147 5.25472 2.72005 5.92279C2.16541 5.90294 1.64276 5.73568 1.18615 5.45643V5.50321C1.18615 7.30767 2.35476 8.81163 3.90258 9.15396C3.61882 9.23901 3.31957 9.28437 3.01181 9.28437C2.79357 9.28437 2.581 9.26169 2.37462 9.21774C2.80543 10.697 4.05659 11.7732 5.53864 11.8032C4.37931 12.8012 2.91868 13.3965 1.33113 13.3965C1.05768 13.3965 0.788618 13.3795 0.523682 13.3446C2.02249 14.4009 3.80327 15.0173 5.71599 15.0173C11.946 15.0173 15.3531 9.34447 15.3531 4.42578C15.3531 4.26418 15.3498 4.10401 15.3433 3.94383C16.0053 3.41936 16.5798 2.76306 17.0338 2.01604" fill="#6188FF"/>
</svg>
